<svg xmlns="http://www.w3.org/2000/svg" viewBox="0 0 32 32" width="32" height="32">
  <rect width="32" height="32" rx="7" fill="#000"/>
  <svg x="3" y="7.96" width="26" height="16.082" viewBox="0 0 297.13 183.8" overflow="visible">
<svg overflow="visible" id="f-Layer_2" data-name="Layer 2" xmlns="http://www.w3.org/2000/svg" xmlns:xlink="http://www.w3.org/1999/xlink" viewBox="0 0 297.13 183.8">
  <defs>
    <style>
      .cls-1 {
        fill: url(#f-g-8);
      }

      .cls-2 {
        fill: url(#f-g-7);
      }

      .cls-3 {
        fill: url(#f-g-5);
      }

      .cls-4 {
        fill: url(#f-g-6);
      }

      .cls-5 {
        fill: url(#f-g-9);
      }

      .cls-6 {
        fill: url(#f-g-4);
      }

      .cls-7 {
        fill: url(#f-g-3);
      }

      .cls-8 {
        fill: url(#f-g-2);
      }

      .cls-9 {
        fill: url(#f-g);
      }
    </style>
    <linearGradient id="f-g" x1="59.78" y1="61.11" x2="59.78" y2="140.43" gradientUnits="userSpaceOnUse">
      <stop offset="0" stop-color="#f5c946"/>
      <stop offset=".51" stop-color="#e59550"/>
      <stop offset="1" stop-color="#dd7049"/>
    </linearGradient>
    <linearGradient id="f-g-2" x1="249.63" y1="101.88" x2="225.02" y2="17.46" gradientUnits="userSpaceOnUse">
      <stop offset="0" stop-color="#54a7dc"/>
      <stop offset=".51" stop-color="#3974b7"/>
      <stop offset=".62" stop-color="#3a6fb6"/>
      <stop offset=".74" stop-color="#4062b3"/>
      <stop offset=".86" stop-color="#4a4dae"/>
      <stop offset=".98" stop-color="#5730a8"/>
      <stop offset="1" stop-color="#5a2ba7"/>
    </linearGradient>
    <linearGradient id="f-g-3" x1="232.34" y1="90.67" x2="209.8" y2="90.67" gradientUnits="userSpaceOnUse">
      <stop offset="0" stop-color="#26225e" stop-opacity="0"/>
      <stop offset="1" stop-color="#26225e"/>
    </linearGradient>
    <linearGradient id="f-g-4" x1="190.02" y1="119.26" x2="165.41" y2="34.84" gradientUnits="userSpaceOnUse">
      <stop offset="0" stop-color="#54a7dc"/>
      <stop offset=".51" stop-color="#3974b7"/>
      <stop offset=".61" stop-color="#3d70b6"/>
      <stop offset=".72" stop-color="#4a65b3"/>
      <stop offset=".83" stop-color="#5f54b0"/>
      <stop offset=".94" stop-color="#7c3baa"/>
      <stop offset="1" stop-color="#912ba7"/>
    </linearGradient>
    <linearGradient id="f-g-5" x1="59.4" y1="93.72" x2="90.1" y2="93.72" gradientUnits="userSpaceOnUse">
      <stop offset="0" stop-color="#dd7248" stop-opacity="0"/>
      <stop offset="1" stop-color="#d74d43"/>
    </linearGradient>
    <linearGradient id="f-g-6" x1="146.4" y1="155.69" x2="146.4" y2="33.31" gradientUnits="userSpaceOnUse">
      <stop offset="0" stop-color="#54a7dc"/>
      <stop offset=".21" stop-color="#5ba4d4"/>
      <stop offset=".4" stop-color="#8f8e9b"/>
      <stop offset=".62" stop-color="#c77860"/>
      <stop offset=".72" stop-color="#dd7049"/>
      <stop offset="1" stop-color="#fdb600"/>
    </linearGradient>
    <linearGradient id="f-g-7" x1="182.63" y1="160.18" x2="163.82" y2="167.63" gradientUnits="userSpaceOnUse">
      <stop offset="0" stop-color="#3974b7" stop-opacity="0"/>
      <stop offset="1" stop-color="#26225e"/>
    </linearGradient>
    <linearGradient id="f-g-8" x1="109.48" y1="61.11" x2="109.48" y2="140.43" gradientUnits="userSpaceOnUse">
      <stop offset="0" stop-color="#f2b90f"/>
      <stop offset=".51" stop-color="#e59550"/>
      <stop offset="1" stop-color="#dd7049"/>
    </linearGradient>
    <linearGradient id="f-g-9" x1="112.98" y1="29.81" x2="136.29" y2="17.75" gradientUnits="userSpaceOnUse">
      <stop offset="0" stop-color="#dd7248" stop-opacity="0"/>
      <stop offset="1" stop-color="#c01400"/>
    </linearGradient>
  </defs>
  <g id="f-Layer_1-2" data-name="Layer 1">
    <g>
      <path class="cls-9" d="M59.78,183.8C26.82,183.8,0,156.98,0,124.02s26.82-59.78,59.78-59.78,59.78,26.82,59.78,59.78-26.82,59.78-59.78,59.78ZM59.78,97.15c-14.82,0-26.87,12.05-26.87,26.87s12.05,26.87,26.87,26.87,26.87-12.05,26.87-26.87-12.05-26.87-26.87-26.87Z"/>
      <g>
        <path class="cls-8" d="M237.35,119.56c-32.96,0-59.78-26.82-59.78-59.78S204.39,0,237.35,0s59.78,26.82,59.78,59.78-26.82,59.78-59.78,59.78ZM237.35,32.91c-14.82,0-26.87,12.05-26.87,26.87s12.05,26.87,26.87,26.87,26.87-12.05,26.87-26.87-12.05-26.87-26.87-26.87Z"/>
        <path class="cls-7" d="M237.35,119.54h0v-32.91h0c-14.13,0-25.74-10.97-26.78-24.83h-32.94c1.08,32.02,27.45,57.74,59.73,57.74Z"/>
        <path class="cls-6" d="M177.58,59.78v84.83c0,1.15-.34,2.22-.88,3.15-1.09,1.85-3.08,3.12-5.38,3.12,0,0,0,0-.01,0-3.46,0-6.28-2.82-6.28-6.28,0,0-3.38,31.23,11.76,38.79,1.67-.24,3.3-.58,4.9-1.02,6-1.65,11.42-4.7,15.91-8.77,7.91-7.17,12.89-17.51,12.89-29.01V59.78h-32.91Z"/>
        <path class="cls-3" d="M59.78,97.15c12.8,0,23.53,9,26.22,21l33.54,5.06c-.44-32.59-27.07-58.96-59.76-58.96-1.98,0-3.94.1-5.88.29l3.87,32.7c.66-.05,1.33-.08,2.01-.08Z"/>
        <path class="cls-4" d="M165.02,144.61V39.19c0-21.61-17.58-39.19-39.19-39.19-3.39,0-6.68.43-9.82,1.25,19.3,3.87,16.1,46.46,16.1,46.46v96.9c0,21.61,17.58,39.19,39.19,39.19,1.86,0,3.69-.14,5.48-.39-15.14-7.56-11.76-38.79-11.76-38.79Z"/>
      </g>
      <path class="cls-2" d="M177.34,147.76c-1.15,1.85-3.25,3.12-5.67,3.12,0,0-.01,0-.02,0-3.65,0-6.62-2.82-6.62-6.28,0,0-3.56,31.23,12.4,38.79,1.76-.24,3.48-.58,5.17-1.02,6.32-1.65,12.04-4.7,16.77-8.77l-22.03-25.86Z"/>
      <path class="cls-1" d="M116.01,1.25c-1.16.3-2.29.66-3.41,1.06-4.74,1.71-9.06,4.31-12.76,7.59h0c-8.09,7.18-13.19,17.65-13.19,29.29v84.83h32.91V39.19c0-.17.03-.33.05-.49h0c.25-3.12,2.76-5.58,5.9-5.75.11,0,.22-.03.33-.03,3.46,0,6.28,2.82,6.28,6.28v8.53s3.2-42.59-16.1-46.46Z"/>
      <path class="cls-5" d="M116.01,1.25c-1.16.3-2.29.66-3.41,1.06-4.74,1.71-9.06,4.31-12.76,7.59h0c-7.57,6.73-12.53,16.33-13.13,27.09l32.85,17.5v-15.3c0-.17.03-.33.05-.49.25-3.12,2.76-5.58,5.9-5.75.11,0,.22-.03.33-.03,3.46,0,6.28,2.82,6.28,6.28v8.53s3.2-42.59-16.1-46.46Z"/>
    </g>
  </g>
</svg>
  </svg>
</svg>
