<?xml version="1.0" encoding="UTF-8"?>
<svg id="Layer_2" data-name="Layer 2" xmlns="http://www.w3.org/2000/svg" xmlns:xlink="http://www.w3.org/1999/xlink" viewBox="0 0 422.7 59.88">
  <defs>
    <style>
      .cls-1 {
        fill: url(#linear-gradient-8);
      }

      .cls-2 {
        fill: url(#linear-gradient-7);
      }

      .cls-3 {
        fill: url(#linear-gradient-5);
      }

      .cls-4 {
        fill: url(#linear-gradient-6);
      }

      .cls-5 {
        fill: url(#linear-gradient-9);
      }

      .cls-6 {
        fill: url(#linear-gradient-4);
      }

      .cls-7 {
        fill: url(#linear-gradient-3);
      }

      .cls-8 {
        fill: url(#linear-gradient-2);
      }

      .cls-9 {
        fill: url(#linear-gradient);
      }

    </style>
    <linearGradient id="linear-gradient" x1="19.47" y1="19.91" x2="19.47" y2="45.75" gradientUnits="userSpaceOnUse">
      <stop offset="0" stop-color="#f5c946"/>
      <stop offset=".51" stop-color="#e59550"/>
      <stop offset="1" stop-color="#dd7049"/>
    </linearGradient>
    <linearGradient id="linear-gradient-2" x1="81.32" y1="33.19" x2="73.3" y2="5.69" gradientUnits="userSpaceOnUse">
      <stop offset="0" stop-color="#54a7dc"/>
      <stop offset=".51" stop-color="#3974b7"/>
      <stop offset=".62" stop-color="#3a6fb6"/>
      <stop offset=".74" stop-color="#4062b3"/>
      <stop offset=".86" stop-color="#4a4dae"/>
      <stop offset=".98" stop-color="#5730a8"/>
      <stop offset="1" stop-color="#5a2ba7"/>
    </linearGradient>
    <linearGradient id="linear-gradient-3" x1="75.69" y1="29.54" x2="68.35" y2="29.54" gradientUnits="userSpaceOnUse">
      <stop offset="0" stop-color="#26225e" stop-opacity="0"/>
      <stop offset="1" stop-color="#26225e"/>
    </linearGradient>
    <linearGradient id="linear-gradient-4" x1="61.9" y1="38.85" x2="53.89" y2="11.35" gradientUnits="userSpaceOnUse">
      <stop offset="0" stop-color="#54a7dc"/>
      <stop offset=".51" stop-color="#3974b7"/>
      <stop offset=".61" stop-color="#3d70b6"/>
      <stop offset=".72" stop-color="#4a65b3"/>
      <stop offset=".83" stop-color="#5f54b0"/>
      <stop offset=".94" stop-color="#7c3baa"/>
      <stop offset="1" stop-color="#912ba7"/>
    </linearGradient>
    <linearGradient id="linear-gradient-5" x1="19.35" y1="30.53" x2="29.35" y2="30.53" gradientUnits="userSpaceOnUse">
      <stop offset="0" stop-color="#dd7248" stop-opacity="0"/>
      <stop offset="1" stop-color="#d74d43"/>
    </linearGradient>
    <linearGradient id="linear-gradient-6" x1="47.69" y1="50.72" x2="47.69" y2="10.85" gradientUnits="userSpaceOnUse">
      <stop offset="0" stop-color="#54a7dc"/>
      <stop offset=".21" stop-color="#5ba4d4"/>
      <stop offset=".4" stop-color="#8f8e9b"/>
      <stop offset=".62" stop-color="#c77860"/>
      <stop offset=".72" stop-color="#dd7049"/>
      <stop offset="1" stop-color="#fdb600"/>
    </linearGradient>
    <linearGradient id="linear-gradient-7" x1="59.49" y1="52.18" x2="53.37" y2="54.61" gradientUnits="userSpaceOnUse">
      <stop offset="0" stop-color="#3974b7" stop-opacity="0"/>
      <stop offset="1" stop-color="#26225e"/>
    </linearGradient>
    <linearGradient id="linear-gradient-8" x1="35.66" y1="19.91" x2="35.66" y2="45.75" gradientUnits="userSpaceOnUse">
      <stop offset="0" stop-color="#f2b90f"/>
      <stop offset=".51" stop-color="#e59550"/>
      <stop offset="1" stop-color="#dd7049"/>
    </linearGradient>
    <linearGradient id="linear-gradient-9" x1="36.8" y1="9.71" x2="44.4" y2="5.78" gradientUnits="userSpaceOnUse">
      <stop offset="0" stop-color="#dd7248" stop-opacity="0"/>
      <stop offset="1" stop-color="#c01400"/>
    </linearGradient>
  </defs>
  <g id="Layer_1-2" data-name="Layer 1">
    <g>
      <g>
        <path class="cls-9" d="M19.47,59.88C8.74,59.88,0,51.14,0,40.4s8.74-19.47,19.47-19.47,19.47,8.74,19.47,19.47-8.74,19.47-19.47,19.47ZM19.47,31.65c-4.83,0-8.75,3.93-8.75,8.75s3.93,8.75,8.75,8.75,8.75-3.93,8.75-8.75-3.93-8.75-8.75-8.75Z"/>
        <g>
          <path class="cls-8" d="M77.32,38.95c-10.74,0-19.47-8.74-19.47-19.47S66.58,0,77.32,0s19.47,8.74,19.47,19.47-8.74,19.47-19.47,19.47ZM77.32,10.72c-4.83,0-8.75,3.93-8.75,8.75s3.93,8.75,8.75,8.75,8.75-3.93,8.75-8.75-3.93-8.75-8.75-8.75Z"/>
          <path class="cls-7" d="M77.32,38.94h0v-10.72h0c-4.6,0-8.38-3.57-8.73-8.09h-10.73c.35,10.43,8.94,18.81,19.46,18.81Z"/>
          <path class="cls-6" d="M57.85,19.47v27.64c0,.38-.11.72-.29,1.03-.35.6-1,1.02-1.75,1.02,0,0,0,0,0,0-1.13,0-2.04-.92-2.04-2.04,0,0-1.1,10.17,3.83,12.64.54-.08,1.08-.19,1.6-.33,1.95-.54,3.72-1.53,5.18-2.86,2.58-2.34,4.2-5.71,4.2-9.45v-27.64h-10.72Z"/>
          <path class="cls-3" d="M19.47,31.65c4.17,0,7.67,2.93,8.54,6.84l10.93,1.65c-.14-10.62-8.82-19.21-19.47-19.21-.65,0-1.28.03-1.91.1l1.26,10.65c.22-.02.43-.03.65-.03Z"/>
          <path class="cls-4" d="M53.76,47.11V12.77c0-7.04-5.73-12.77-12.77-12.77-1.1,0-2.18.14-3.2.41,6.29,1.26,5.25,15.14,5.25,15.14v31.57c0,7.04,5.73,12.77,12.77,12.77.61,0,1.2-.05,1.79-.13-4.93-2.46-3.83-12.64-3.83-12.64Z"/>
        </g>
        <path class="cls-2" d="M57.77,48.14c-.37.6-1.06,1.02-1.85,1.02,0,0,0,0,0,0-1.19,0-2.16-.92-2.16-2.04,0,0-1.16,10.17,4.04,12.64.57-.08,1.13-.19,1.68-.33,2.06-.54,3.92-1.53,5.46-2.86l-7.18-8.42Z"/>
        <path class="cls-1" d="M37.79.41c-.38.1-.75.21-1.11.34-1.55.56-2.95,1.4-4.16,2.47h0c-2.63,2.34-4.3,5.75-4.3,9.54v27.64h10.72V12.77c0-.05.01-.11.02-.16h0c.08-1.01.9-1.82,1.92-1.87.04,0,.07-.01.11-.01,1.13,0,2.05.92,2.05,2.04v2.78s1.04-13.88-5.25-15.14Z"/>
        <path class="cls-5" d="M37.79.41c-.38.1-.75.21-1.11.34-1.55.56-2.95,1.4-4.16,2.47h0c-2.47,2.19-4.08,5.32-4.28,8.82l10.7,5.7v-4.98c0-.05.01-.11.02-.16.08-1.01.9-1.82,1.92-1.87.04,0,.07-.01.11-.01,1.13,0,2.05.92,2.05,2.04v2.78s1.04-13.88-5.25-15.14Z"/>
      </g>
      <path fill="#fff" d="M2.13462 0.0H11.649959999999998C18.741239999999998 0.0 24.095879999999998 -4.6672199999999995 24.095879999999998 -12.3012C24.095879999999998 -19.93518 18.741239999999998 -24.6024 11.649959999999998 -24.6024H2.13462ZM8.71938 -5.571719999999999V-19.030679999999997H10.926359999999999C14.906159999999998 -19.030679999999997 17.3664 -16.38954 17.3664 -12.3012C17.3664 -8.21286 14.906159999999998 -5.571719999999999 10.926359999999999 -5.571719999999999ZM52.49717999999999 0.0H59.081939999999996V-24.6024H52.49717999999999ZM95.40665999999999 -7.0550999999999995H98.77139999999999C105.03053999999999 -7.0550999999999995 108.50381999999999 -10.74546 108.50381999999999 -15.774479999999999C108.50381999999999 -20.8035 105.03053999999999 -24.6024 98.77139999999999 -24.6024H88.82189999999999V0.0H95.40665999999999ZM95.40665999999999 -12.554459999999999V-19.030679999999997H98.44577999999998C100.68893999999999 -19.030679999999997 101.88287999999999 -17.800559999999997 101.88287999999999 -15.774479999999999C101.88287999999999 -13.748399999999998 100.68893999999999 -12.554459999999999 98.44577999999998 -12.554459999999999ZM145.0818 0.36179999999999995C151.5942 0.36179999999999995 154.41624 -2.8943999999999996 154.41624 -7.416899999999999C154.41624 -10.890179999999999 152.75196 -13.241879999999998 147.83148 -14.869979999999998L144.57528 -15.955379999999998C143.38134 -16.35336 142.83864 -16.8237 142.83864 -17.76438C142.83864 -18.741239999999998 143.6346 -19.46484 145.22652 -19.46484C147.18024 -19.46484 148.48272 -18.741239999999998 149.49576 -17.69202L153.25848 -21.63564C151.81128 -23.3361 149.20632 -24.89184 144.86472 -24.89184C140.48694 -24.89184 136.47096 -22.395419999999998 136.47096 -17.5473C136.47096 -13.49514 139.00356 -11.32434 142.58538 -10.1304L145.47978 -9.15354C147.10788 -8.61084 147.90384 -8.10432 147.90384 -7.0550999999999995C147.90384 -5.68026 146.74608 -5.10138 144.79236 -5.10138C142.33212 -5.10138 140.84874 -6.295319999999999 139.6548 -7.7787L134.87904 -4.196879999999999C136.3986 -2.1708 139.54626 0.36179999999999995 145.0818 0.36179999999999995ZM198.30257999999998 0.0H205.10442L193.16502 -25.036559999999998C193.05648 -25.28982 192.83939999999998 -25.28982 192.73085999999998 -25.036559999999998L180.75528 0.0H187.19531999999998L188.42543999999998 -2.96676H197.0001ZM192.6585 -12.95244 194.90166 -7.742519999999999H190.45152ZM254.34539999999998 0.43416C254.74337999999997 0.7597799999999999 254.85191999999998 0.6512399999999999 254.85191999999998 0.36179999999999995V-24.6024H248.66513999999998V-12.26502L233.21627999999998 -25.000379999999996C232.81829999999997 -25.325999999999997 232.70976 -25.1451 232.70976 -24.928019999999997V0.0H238.89654V-12.26502ZM300.00456 0.0H306.8064L294.867 -25.036559999999998C294.75846 -25.28982 294.54138 -25.28982 294.43284 -25.036559999999998L282.45726 0.0H288.89730000000003L290.12742000000003 -2.96676H298.70208ZM294.36048 -12.95244 296.60364 -7.742519999999999H292.1535Z" transform="translate(115.73 47.11)"/>
    </g>
  </g>
</svg>